<?xml version="1.0" encoding="UTF-8"?>
<!DOCTYPE svg PUBLIC "-//W3C//DTD SVG 1.1//EN" "http://www.w3.org/Graphics/SVG/1.1/DTD/svg11.dtd">
<!-- Creator: CorelDRAW 2018 (64-Bit) -->
<svg xmlns="http://www.w3.org/2000/svg" xml:space="preserve" width="91.8064mm" height="92.1511mm" version="1.1" style="shape-rendering:geometricPrecision; text-rendering:geometricPrecision; image-rendering:optimizeQuality; fill-rule:evenodd; clip-rule:evenodd"
viewBox="0 0 544.84 546.89"
 xmlns:xlink="http://www.w3.org/1999/xlink">
 <defs>
  <style type="text/css">
   <![CDATA[
    .fil3 {fill:#040503}
    .fil2 {fill:#595758}
    .fil0 {fill:#BEC1BE}
    .fil1 {fill:#F1F3F5}
   ]]>
  </style>
 </defs>
 <g id="layer_x0020_1">
  <metadata id="CorelCorpID_0Corel-Layer"/>
  <g id="_2865965703136">
   <path class="fil0" d="M120.84 155.99c22.32,-55.55 -3.4,8.44 -0.22,-48.8 21.13,27.43 -1.41,28 38.42,15.37 3.95,-18.5 -15.91,-17.81 -5.69,-39.21 -2.1,24.45 14.07,16.22 25.95,18.35 14.8,-20.52 0.09,-15.39 8.55,-33.97 13.23,21.05 5.67,31.27 48.74,15.73 54.06,-19.51 0.52,-5.22 24.09,-34.69 1.92,1.49 3.76,20.79 29.77,27.65l8.55 -26.09c1.13,1.84 1.94,3.01 2.41,6 3.66,23.36 30.11,29.32 41.17,33.64 18.07,7.06 44.44,20.75 58.07,30.38 84.94,59.98 118.77,269.84 -56.72,336.1 -160.37,60.56 -305.93,-86.96 -259.19,-241.38 2.83,-9.37 11.46,-29.96 12.02,-32.5l1.7 -12.71c2.28,-64.33 -16.85,-2.8 22.36,-13.89zm97.51 -125.15c-117.49,19.2 -226.38,165.59 -187.98,304.9 33.81,122.65 164.38,209.83 302.78,179.46 23.1,-5.07 70.22,-27.92 85.11,-36.78 80.04,-47.67 114.68,-170.88 96.51,-266.88 -12.11,-64 -59.69,-105.44 -104.56,-143.1 -54.88,-46.05 -119.47,-49.43 -191.85,-37.6z"/>
   <path class="fil1" d="M229.06 384.38c-15.36,-50.72 49.48,-64.99 62.28,-23.98 14.69,47.11 -52.13,57.5 -62.28,23.98zm-46.08 -131.68c-42.87,-133.1 212.73,-134.1 184.54,-7 -8.19,36.96 -24.27,33.52 -50.22,47.01 -32.57,16.94 -29.53,39.74 -61.18,32.43 -22.38,-5.17 -25.87,3.17 -20.45,-33.22 5.43,-36.49 -7.54,-9.26 20.71,-27.32 31.87,-20.38 25.75,5.57 48.9,-34.12 -10.85,-32.43 -18.51,-33.98 -59.61,-27.9l-11.41 57.49 -51.27 -7.36zm49.53 -141.28c-219.34,65.07 -132.98,377.23 89.82,320.79 69.4,-17.58 137.16,-102.87 112.08,-202.35 -19.64,-77.91 -102.92,-147.8 -201.9,-118.44z"/>
   <path class="fil2" d="M218.35 30.84c72.38,-11.83 136.97,-8.45 191.85,37.6 44.87,37.66 92.44,79.1 104.56,143.1 18.17,96 -16.46,219.22 -96.51,266.88 -14.89,8.87 -62.01,31.72 -85.11,36.78 -138.4,30.37 -268.97,-56.81 -302.78,-179.46 -38.4,-139.31 70.49,-285.7 187.98,-304.9zm-217.02 285.14c4.8,76.38 63.51,140.07 101.6,170.45 57.59,45.93 117.49,69.35 211.82,57.35 327.32,-41.66 310.2,-575.49 -82.03,-542.28 -79,6.69 -140.9,60.87 -174.92,99.07 -50.05,56.21 -62.25,123.33 -56.47,215.42z"/>
   <path class="fil2" d="M232.51 111.42c98.98,-29.36 182.26,40.53 201.9,118.44 25.08,99.48 -42.68,184.76 -112.08,202.35 -222.81,56.44 -309.17,-255.72 -89.82,-320.79zm-111.67 44.57c-39.21,11.08 -20.08,-50.45 -22.36,13.89l-1.7 12.71c-0.56,2.54 -9.19,23.14 -12.02,32.5 -46.74,154.42 98.82,301.93 259.19,241.38 175.48,-66.26 141.66,-276.12 56.72,-336.1 -13.63,-9.63 -40,-23.32 -58.07,-30.38 -11.07,-4.32 -37.51,-10.29 -41.17,-33.64 -0.47,-2.99 -1.28,-4.17 -2.41,-6l-8.55 26.09c-26.01,-6.87 -27.85,-26.17 -29.77,-27.65 -23.57,29.47 29.97,15.18 -24.09,34.69 -43.07,15.55 -35.52,5.32 -48.74,-15.73 -8.46,18.58 6.25,13.45 -8.55,33.97 -11.88,-2.13 -28.05,6.11 -25.95,-18.35 -10.22,21.39 9.64,20.7 5.69,39.21 -39.83,12.63 -17.29,12.06 -38.42,-15.37 -3.18,57.24 22.54,-6.75 0.22,48.8z"/>
   <path class="fil3" d="M182.98 252.7l51.27 7.36 11.41 -57.49c41.11,-6.09 48.76,-4.53 59.61,27.9 -23.14,39.69 -17.03,13.74 -48.9,34.12 -28.25,18.07 -15.28,-9.17 -20.71,27.32 -5.42,36.4 -1.93,28.05 20.45,33.22 31.65,7.31 28.61,-15.48 61.18,-32.43 25.95,-13.5 42.02,-10.05 50.22,-47.01 28.19,-127.1 -227.41,-126.1 -184.54,7z"/>
   <path class="fil3" d="M229.06 384.38c10.15,33.52 76.97,23.13 62.28,-23.98 -12.79,-41.01 -77.64,-26.74 -62.28,23.98z"/>
  </g>
 </g>
</svg>
